<?xml version="1.0" standalone="no"?>
<!DOCTYPE svg PUBLIC "-//W3C//DTD SVG 20010904//EN"
 "http://www.w3.org/TR/2001/REC-SVG-20010904/DTD/svg10.dtd">
<svg version="1.0" xmlns="http://www.w3.org/2000/svg"
 width="624.000000pt" height="624.000000pt" viewBox="0 0 624.000000 624.000000"
 preserveAspectRatio="xMidYMid meet">
<metadata>
Created by potrace 1.11, written by Peter Selinger 2001-2013
</metadata>
<g transform="translate(0.000000,624.000000) scale(0.100000,-0.100000)"
fill="#000000" stroke="none">
<path d="M3328 6075 c-3 -2 -52 -9 -153 -20 -25 -3 -125 -24 -186 -39 -86 -22
-240 -80 -305 -116 -21 -12 -55 -31 -75 -42 -42 -24 -70 -66 -67 -102 6 -68
79 -76 187 -22 39 20 71 33 71 29 0 -5 4 -3 8 3 7 10 155 65 217 80 17 4 35 8
40 10 14 4 142 32 185 39 19 4 116 8 215 10 300 6 496 -36 747 -160 93 -46
231 -129 264 -160 6 -5 33 -29 60 -51 78 -66 161 -151 222 -229 109 -138 224
-362 268 -521 31 -115 34 -130 40 -174 3 -25 9 -62 14 -83 9 -42 6 -350 -4
-412 -4 -22 -11 -56 -17 -75 -6 -19 -12 -47 -15 -62 -8 -43 -50 -144 -88 -213
-39 -68 -78 -119 -162 -207 -117 -122 -175 -264 -168 -406 2 -40 17 -124 33
-185 36 -134 45 -204 43 -317 -3 -211 -37 -353 -131 -545 -118 -240 -296 -450
-536 -631 -370 -279 -823 -381 -1350 -304 -151 23 -252 16 -420 -26 -234 -59
-502 -112 -710 -139 -93 -13 -110 -15 -170 -20 -33 -3 -80 -7 -105 -10 -143
-16 -622 -25 -690 -12 -19 4 -46 9 -60 12 -14 2 -47 15 -75 27 -145 65 -271
211 -280 324 -3 36 1 50 22 74 36 43 66 56 184 80 57 11 115 23 129 25 14 3
36 7 50 10 14 3 36 7 50 10 14 3 36 8 50 10 14 2 50 9 80 15 30 6 66 13 80 16
14 3 32 7 42 10 9 2 40 9 70 14 58 10 80 14 173 34 95 20 138 13 265 -42 153
-65 192 -75 318 -76 170 -1 249 15 427 89 314 130 538 329 699 619 27 48 94
203 102 235 2 9 13 48 24 86 23 78 26 94 41 180 20 117 27 282 15 345 -2 14
-7 48 -11 75 -15 106 -82 273 -142 352 -80 105 -159 163 -293 215 -72 28 -195
40 -270 26 -25 -5 -52 -9 -60 -11 -8 -1 -39 -14 -69 -28 -31 -14 -63 -24 -73
-21 -19 5 -88 113 -88 138 0 7 -3 14 -8 14 -6 0 -49 107 -59 145 -44 179 -45
190 -48 348 -1 93 4 176 16 257 18 116 60 285 82 325 6 11 12 26 13 32 5 31
92 196 143 273 62 92 81 117 153 194 58 62 76 107 57 143 -11 21 -56 53 -74
53 -15 0 -63 -32 -85 -57 -101 -112 -220 -271 -220 -293 0 -5 -4 -10 -8 -10
-23 0 -180 -364 -196 -456 -3 -13 -12 -59 -20 -101 -9 -43 -18 -105 -21 -138
-7 -70 -7 -318 -1 -355 3 -14 7 -50 10 -80 4 -30 13 -79 20 -107 8 -29 12 -53
10 -53 -3 0 2 -13 11 -30 9 -16 13 -30 11 -30 -8 0 49 -134 83 -194 47 -86 60
-134 48 -170 -10 -32 -159 -247 -256 -371 -30 -38 -118 -132 -195 -208 -78
-76 -172 -168 -210 -205 -69 -68 -98 -112 -120 -186 -28 -94 7 -208 91 -296
49 -52 52 -68 19 -101 -49 -50 -86 -156 -92 -264 -1 -27 -2 -53 -3 -57 -3 -22
-158 -69 -301 -92 -19 -3 -46 -8 -60 -11 -14 -3 -38 -8 -55 -10 -16 -3 -66
-12 -110 -20 -44 -8 -96 -17 -115 -20 -75 -12 -238 -47 -293 -62 -44 -12 -70
-28 -111 -67 -73 -71 -91 -112 -90 -211 0 -61 6 -93 24 -135 13 -30 26 -57 29
-60 4 -3 13 -18 21 -35 8 -16 51 -66 95 -110 65 -65 100 -90 175 -128 147 -73
172 -76 544 -72 176 2 346 6 376 9 124 12 177 17 220 22 87 9 115 13 115 14 0
1 20 4 45 6 25 3 79 12 120 21 41 8 82 15 90 15 8 0 31 4 50 9 19 4 49 11 65
13 46 9 63 12 155 35 47 11 96 22 110 25 14 3 63 15 110 26 125 31 155 34 175
14 15 -15 16 -33 10 -148 -13 -235 -9 -278 36 -367 42 -84 146 -158 250 -177
95 -18 200 7 277 66 60 45 76 65 109 132 30 59 29 56 38 150 29 300 29 300 58
321 36 26 134 43 166 29 32 -13 33 -13 101 -180 72 -174 97 -218 154 -274 90
-88 222 -123 341 -89 47 14 175 90 175 105 0 3 6 13 13 20 7 7 26 40 43 73 25
53 29 71 28 145 0 77 -5 97 -49 210 -26 69 -63 158 -83 198 -45 96 -41 119 38
192 32 30 104 97 158 148 54 51 111 100 126 107 24 13 72 24 176 40 19 3 46 7
60 10 14 3 45 7 70 10 25 3 56 7 70 10 14 3 43 7 65 10 22 2 54 6 70 9 17 2
53 7 80 11 102 14 138 54 114 124 -17 48 -51 55 -184 37 -22 -3 -49 -7 -60 -9
-18 -4 -63 -11 -155 -23 -83 -10 -149 -13 -154 -6 -2 4 19 57 48 117 104 218
151 377 161 545 7 116 7 154 1 190 -3 19 -8 52 -11 72 -7 62 -16 109 -36 188
-43 179 -42 229 12 337 57 114 158 181 295 197 110 14 182 19 241 20 35 1 63
3 63 6 0 7 219 4 258 -4 103 -21 224 -85 276 -147 34 -40 75 -111 82 -141 31
-134 3 -262 -78 -358 -18 -22 -104 -90 -112 -90 -13 0 -101 -63 -111 -79 -21
-34 -14 -65 31 -131 75 -112 100 -211 79 -310 -10 -51 -66 -147 -111 -193 -48
-48 -139 -107 -165 -107 -8 0 -32 -14 -53 -32 -34 -28 -37 -35 -33 -65 17
-102 112 -101 272 2 164 106 256 267 261 455 2 84 -2 106 -30 190 -17 52 -30
104 -28 114 4 17 39 56 67 74 33 22 117 130 143 185 42 87 52 139 48 249 -5
155 -54 266 -166 379 -54 54 -94 85 -143 108 -117 56 -182 65 -452 65 -132 0
-260 -2 -285 -4 -55 -6 -56 -2 -19 101 26 74 53 172 64 234 2 17 7 41 11 55
10 42 12 340 3 420 -10 87 -17 135 -24 170 -4 14 -8 36 -11 50 -37 181 -136
406 -252 570 -25 36 -51 70 -57 77 -5 7 -21 26 -35 42 -45 55 -130 140 -203
204 -74 63 -210 167 -220 167 -3 0 -26 14 -50 30 -25 17 -49 30 -55 30 -5 0
-15 7 -22 15 -6 8 -15 14 -18 12 -4 -1 -37 13 -74 30 -62 30 -163 69 -198 78
-63 15 -117 29 -130 33 -22 8 -20 7 -85 17 -33 4 -69 10 -80 12 -24 5 -402 13
-407 8z m-828 -2539 c101 -38 186 -108 233 -194 27 -50 80 -202 73 -210 -3 -2
0 -16 6 -31 14 -34 20 -282 8 -341 -4 -25 -11 -62 -14 -83 -18 -118 -125 -355
-228 -504 -102 -150 -270 -299 -423 -375 -52 -27 -179 -74 -218 -82 -49 -11
-69 -15 -87 -21 -9 -3 -44 -8 -76 -10 -33 -3 -79 -6 -104 -9 -59 -5 -215 41
-271 80 -47 32 -83 99 -82 150 1 74 36 128 123 195 58 44 77 67 86 102 8 37
-26 74 -110 118 -76 40 -94 55 -115 99 -41 82 3 161 149 269 104 77 214 192
317 334 154 211 268 361 298 396 44 49 113 96 175 119 67 24 191 23 260 -2z
m1511 -2346 c16 -28 86 -185 94 -210 4 -14 11 -29 15 -35 13 -16 50 -118 50
-138 0 -50 -62 -131 -125 -165 -36 -18 -122 -20 -156 -2 -34 17 -99 89 -99
109 0 9 -4 21 -9 27 -8 9 -60 132 -92 218 -18 48 -18 51 0 79 10 16 21 29 24
28 4 0 48 19 99 43 128 59 140 63 167 62 13 -1 28 -8 32 -16z m-954 -225 c30
-7 41 -47 36 -138 -7 -137 -28 -236 -61 -276 -75 -92 -194 -100 -277 -17 -61
61 -66 89 -51 281 9 110 16 144 34 154 16 9 270 5 319 -4z"/>
<path d="M3542 5086 c-21 -11 -48 -28 -58 -36 -23 -18 -84 -104 -84 -118 0 -6
-3 -12 -7 -14 -8 -3 -78 -133 -73 -133 2 0 -4 -23 -14 -51 -24 -74 -28 -92
-33 -166 -8 -113 41 -192 172 -281 149 -102 360 -175 585 -203 140 -17 217 -2
284 57 63 56 84 128 65 223 -17 84 -95 260 -135 307 -8 8 -14 19 -14 22 0 27
-183 205 -272 265 -73 49 -179 107 -244 133 -52 21 -128 18 -172 -5z m193
-197 c44 -22 112 -65 151 -94 71 -53 184 -163 184 -178 0 -4 8 -16 18 -27 43
-47 122 -226 122 -279 0 -52 -27 -64 -132 -57 -163 10 -292 47 -453 128 -181
91 -209 142 -155 285 23 62 96 211 113 232 11 13 44 29 62 30 6 1 46 -18 90
-40z"/>
<path d="M2978 4957 c-42 -28 -58 -74 -53 -153 4 -74 16 -99 56 -120 28 -14
33 -14 55 0 40 27 57 62 57 124 1 106 -16 148 -65 165 -9 3 -31 -4 -50 -16z"/>
<path d="M4486 4947 c-28 -23 -29 -26 -30 -121 l-1 -98 32 -28 c68 -61 128 -6
132 122 3 75 -15 118 -56 137 -34 16 -44 14 -77 -12z"/>
</g>
</svg>
