<svg width="39" height="37" viewBox="0 0 39 37" fill="none" xmlns="http://www.w3.org/2000/svg">
<path d="M32.1548 14.7813C32.5032 14.7568 32.8443 14.7126 33.1877 14.7151C34.1274 14.7151 35.0917 14.6292 36.0068 14.7936C36.7932 14.9164 37.5149 15.3015 38.0547 15.8864C38.5945 16.4712 38.9208 17.2214 38.9804 18.015C39.1105 19.2418 38.5854 20.2575 37.6138 21.0107C37.3121 21.2561 37.2777 21.4205 37.4347 21.7664C38.3597 23.8175 37.1231 25.876 35.2266 26.5262C34.9052 26.6341 34.5617 26.6537 34.4194 26.2563C34.2771 25.8588 34.5445 25.6674 34.8684 25.5374C35.5095 25.3196 36.0499 24.8768 36.3895 24.291C36.6241 23.9 36.7318 23.4461 36.698 22.9914C36.6642 22.5367 36.4904 22.1037 36.2006 21.7517C35.7099 21.0843 35.7467 20.8831 36.4852 20.4832C37.4347 19.9704 38.0138 19.205 37.9303 18.096C37.8469 16.987 37.1624 16.2927 36.1565 15.932C35.7341 15.7758 35.2867 15.6985 34.8365 15.7038C33.8551 15.7308 32.8884 15.8069 31.9242 15.9295C31.6044 15.9772 31.2985 16.0926 31.0269 16.2678C30.7552 16.4431 30.524 16.6742 30.3487 16.9459C30.1734 17.2175 30.0581 17.5234 30.0103 17.8431C29.9626 18.1629 29.9835 18.4891 30.0718 18.8001C30.2827 19.5549 30.4216 20.3279 30.4865 21.1089C30.5821 22.684 30.143 24.1585 29.4216 25.5546C29.3186 25.7558 29.2254 25.9619 29.1027 26.2244C29.293 26.2371 29.484 26.2371 29.6744 26.2244C30.4251 26.1238 31.1734 26.0085 31.9217 25.9005C32.2701 25.8514 32.5965 25.9005 32.6578 26.3152C32.7191 26.7298 32.4517 26.8819 32.0861 26.9359C30.906 27.1052 29.7259 27.2696 28.5482 27.4634C28.3133 27.5108 28.096 27.622 27.9201 27.7848C27.3386 28.3098 26.7989 28.8815 26.2027 29.4041C26.097 29.4751 26.0231 29.5845 25.9965 29.709C25.97 29.8335 25.9929 29.9635 26.0604 30.0714C26.3671 30.7437 26.6639 31.4282 26.9044 32.1275C27.0125 32.4063 27.0633 32.7042 27.0537 33.0031C27.0442 33.302 26.9744 33.596 26.8487 33.8674C26.723 34.1388 26.5438 34.382 26.3219 34.5826C26.1001 34.7832 25.84 34.937 25.5574 35.0349C24.3895 35.4519 23.1824 34.8803 22.677 33.6707C22.4317 33.1089 22.201 32.547 21.9704 31.9803C21.9493 31.9149 21.915 31.8544 21.8699 31.8026C21.8247 31.7508 21.7694 31.7087 21.7075 31.6789C21.6455 31.6491 21.5782 31.6322 21.5095 31.6291C21.4409 31.6261 21.3723 31.6371 21.308 31.6613C20.4909 31.8232 20.486 31.8134 20.3953 32.6427C20.3437 33.1211 20.3192 33.5996 20.2677 34.0755C20.2086 34.6622 19.9209 35.2021 19.4667 35.5781C19.0126 35.9542 18.4286 36.1363 17.8412 36.0849C17.2755 36.0454 16.7467 35.7897 16.3643 35.3708C15.982 34.952 15.7755 34.4021 15.7876 33.8351C15.7876 33.3125 15.8588 32.7899 15.8735 32.2673C15.8907 31.6049 15.795 31.5313 15.1374 31.7006C14.1732 31.9263 13.2164 32.1765 12.2472 32.3704C10.1897 32.7956 8.09652 33.0248 5.99574 33.0549C5.2278 33.0549 4.45741 33.0721 3.68946 33.0328C2.16094 32.9518 0.593159 31.7325 0.109822 30.2874C0.0192128 30.0366 -0.0159784 29.7692 0.00666932 29.5036C0.029317 29.2379 0.109267 28.9804 0.241013 28.7486C0.37276 28.5168 0.553174 28.3163 0.769833 28.1609C0.986492 28.0056 1.23425 27.899 1.49604 27.8486C2.9068 27.564 4.32737 27.3334 5.74058 27.0659C6.12694 26.9945 6.50746 26.8944 6.879 26.7666C7.00658 26.7224 7.18323 26.5213 7.17096 26.4256C7.13386 26.0623 7.17487 25.6953 7.29124 25.3491C7.40761 25.003 7.59664 24.6857 7.84567 24.4186C7.87466 24.373 7.89697 24.3234 7.91191 24.2714C7.8285 24.1855 7.74508 24.0923 7.66657 24.0015C6.85201 23.209 6.73424 22.2522 7.39914 21.3297C7.68019 20.9991 7.98791 20.6922 8.31919 20.4121C8.91124 19.8805 9.47625 19.3196 10.0121 18.7314C10.6549 17.9635 11.2094 17.1219 11.7982 16.3098C12.0877 15.9124 11.9258 15.5272 11.7222 15.1665C11.2353 14.3192 10.9155 13.3864 10.78 12.4186C10.3204 8.95265 11.2773 5.94385 13.6506 3.39223C13.9843 3.03156 14.2517 3.00212 14.5118 3.25483C14.7719 3.50754 14.7326 3.77988 14.3965 4.13073C13.1574 5.4003 12.3063 6.99704 11.943 8.73347C11.494 10.8459 11.5995 12.9044 12.7257 14.8181C12.8631 15.0635 12.9857 15.191 13.2654 15.0242C14.6566 14.2023 17.1321 14.7592 18.1184 16.7637C18.825 18.2015 18.8962 19.73 18.5969 21.2438C17.9295 24.6124 16.0575 27.0389 12.7526 28.2142C11.7563 28.6062 10.6697 28.71 9.61709 28.5135C9.07732 28.3957 8.57926 28.0939 8.05422 27.8977C7.84191 27.7958 7.60725 27.7493 7.37215 27.7627C5.58846 28.0988 3.80968 28.4742 2.026 28.8226C1.09613 29.0017 0.828695 29.5415 1.30713 30.3561C1.59312 30.8689 2.01256 31.2947 2.52096 31.5884C3.02937 31.8821 3.60779 32.0328 4.19488 32.0244C7.61864 32.102 11.0359 31.6889 14.3425 30.7977C15.1123 30.5886 15.9181 30.5476 16.7052 30.6775C20.724 31.308 24.2129 30.2604 26.9731 27.196C28.401 25.6135 29.3358 23.7611 29.4094 21.5873C29.4336 20.846 29.3315 20.1059 29.1076 19.3988C28.6292 17.9267 28.953 16.7343 30.0522 15.6719C31.2789 14.482 31.7377 12.9437 31.8138 11.2826C31.9143 8.71725 31.0073 6.21432 29.2866 4.30889C27.5659 2.40346 25.1682 1.24672 22.6059 1.08595C20.5934 0.9401 18.58 1.35722 16.7911 2.29061C16.5921 2.39458 16.3639 2.4283 16.1434 2.3863C16.0638 2.34649 15.9959 2.28665 15.9464 2.21266C15.8969 2.13867 15.8676 2.05307 15.8612 1.9643C15.9093 1.74543 16.0392 1.55321 16.2243 1.42698C17.2429 0.828763 18.3606 0.418245 19.5243 0.214958C23.2266 -0.432763 26.5707 0.359714 29.3824 2.91379C31.8162 5.12193 32.935 7.92627 32.8639 11.2115C32.8507 12.2836 32.6342 13.3434 32.226 14.3348C32.1921 14.4144 32.1642 14.4964 32.1426 14.5801C32.1389 14.6474 32.143 14.715 32.1548 14.7813ZM10.4905 27.5983L10.52 27.5149C10.7948 27.4928 11.0745 27.4904 11.3443 27.4438C14.08 26.9825 15.8759 25.3313 16.9874 22.8827C17.7482 21.322 17.8979 19.5332 17.4069 17.8678C17.0904 16.8103 16.4255 16.0596 15.3067 15.8118C14.2198 15.5664 13.3979 16.0277 12.7404 16.83C12.2497 17.4335 11.7884 18.0763 11.337 18.7192C10.6402 19.7006 9.89924 20.6525 8.86632 21.3297C8.65116 21.479 8.46075 21.6611 8.30202 21.8694C8.20434 21.9696 8.13079 22.0907 8.08697 22.2236C8.04315 22.3565 8.0302 22.4976 8.04913 22.6362C8.06805 22.7749 8.11835 22.9073 8.19618 23.0236C8.27402 23.1399 8.37734 23.2369 8.4983 23.3072C8.69703 23.447 8.9522 23.5084 9.14847 23.6531C9.34475 23.7979 9.55085 23.9623 9.56557 24.1438C9.58029 24.3254 9.38401 24.5364 9.2368 24.6959C9.07985 24.8241 8.91604 24.9436 8.7461 25.0541C7.98307 25.7091 8.06158 26.7298 8.95955 27.1763C9.43062 27.3996 9.98021 27.4609 10.4905 27.5983ZM26.0824 32.8537C25.7488 32.071 25.42 31.2884 25.0642 30.5155C25.0348 30.4517 24.7993 30.4198 24.6938 30.4616C24.1589 30.6848 23.6314 30.9253 23.1162 31.1976C23.0617 31.2393 23.019 31.2945 22.9923 31.3578C22.9656 31.421 22.9559 31.4901 22.9641 31.5583C23.2094 32.1962 23.4548 32.8292 23.7467 33.445C23.8598 33.6836 24.0514 33.8761 24.2894 33.9904C24.5275 34.1048 24.7975 34.1339 25.0544 34.0731C25.328 33.9958 25.5721 33.8383 25.7553 33.6209C25.9386 33.4036 26.0525 33.1364 26.0824 32.8537ZM18.0792 31.9263C17.9025 31.9263 17.6842 31.9091 17.4707 31.8797C17.1468 31.8331 16.98 31.9386 16.9579 32.2869C16.9309 32.7629 16.8671 33.2389 16.8402 33.7149C16.8174 34.0224 16.9113 34.3273 17.1032 34.5687C17.295 34.8101 17.5708 34.9704 17.8755 35.0177C18.1737 35.0599 18.4766 34.9847 18.7205 34.8081C18.9644 34.6315 19.1303 34.3671 19.1832 34.0706C19.2627 33.6576 19.3127 33.2395 19.3329 32.8194C19.3918 31.9606 19.3574 31.9312 18.511 31.9263H18.0792Z" fill="#1E3A8A"/>
<path d="M25.6237 12.5314C24.1933 12.3817 22.6451 12.0407 21.3055 11.0593C20.5695 10.522 20.2653 9.85217 20.5131 8.93947C20.7048 8.11574 21.0648 7.34057 21.5705 6.66264C21.7544 6.40358 22.022 6.21595 22.3282 6.13145C22.6345 6.04696 22.9605 6.0708 23.2512 6.19893C25.2483 7.05029 26.7081 8.4267 27.3362 10.5612C27.6625 11.7217 26.9976 12.5633 25.6237 12.5314ZM25.6409 11.4494C26.2591 11.4837 26.4333 11.2727 26.2689 10.76C25.7316 9.08423 24.5687 7.98998 23.0083 7.26865C22.9522 7.23269 22.8891 7.20915 22.8233 7.19962C22.7574 7.19008 22.6902 7.19477 22.6263 7.21337C22.5623 7.23196 22.5031 7.26404 22.4527 7.30743C22.4022 7.35082 22.3615 7.40453 22.3335 7.46493C22.0697 7.93109 21.8417 8.41665 21.6515 8.91739C21.384 9.68779 21.4871 9.92578 22.1839 10.3674C23.2301 10.9921 24.4082 11.3627 25.6237 11.4494H25.6409Z" fill="#1E3A8A"/>
<path d="M19.3352 7.88219C19.3545 8.05824 19.3361 8.23638 19.2812 8.40478C19.1782 8.57898 18.9672 8.79488 18.7905 8.79734C18.6864 8.77644 18.5892 8.72979 18.5078 8.66164C18.4264 8.59349 18.3633 8.50603 18.3244 8.40723C18.2455 8.06954 18.2413 7.7187 18.3121 7.37922C18.3495 7.27245 18.411 7.17573 18.4919 7.09659C18.5727 7.01744 18.6707 6.958 18.7783 6.92288C19.0678 6.85172 19.2518 7.07744 19.2935 7.37432C19.3279 7.53134 19.3254 7.69327 19.3352 7.88219Z" fill="#1E3A8A"/>
<path d="M28.8696 7.85269C28.8832 8.04133 28.8624 8.23086 28.8083 8.41208C28.7199 8.58137 28.5187 8.80219 28.374 8.79728C28.2692 8.784 28.1694 8.74472 28.0837 8.68301C27.998 8.6213 27.9291 8.53913 27.8833 8.44398C27.8146 8.06102 27.8146 7.66889 27.8833 7.28593C27.9206 7.1931 27.9814 7.11154 28.0597 7.04919C28.1379 6.98684 28.231 6.94584 28.3298 6.93018C28.4329 6.95591 28.5297 7.00249 28.614 7.06705C28.6984 7.13162 28.7687 7.21279 28.8205 7.30556C28.8941 7.44786 28.8524 7.67113 28.8696 7.85269Z" fill="#1E3A8A"/>
</svg>
